<svg xmlns="http://www.w3.org/2000/svg" preserveAspectRatio="xMidYMid" width="120" height="30" viewBox="0 0 120 30"><defs><style>.cls-5 { fill: #16bed5; } .cls-6 { fill: #ffffff; }</style></defs><g id="logo" fill-rule="evenodd"><g id="codecamp"><g id="camp"><path d="M16 20l7 7h7L16 8" id="path-1" class="cls-5"/><path d="M0 27v2h32v-2L17 7l4-5V0l-5 6-5-6v2l4 5L0 27h30L16 8v12l-7 7" id="path-2" class="cls-6"/></g><g id="code"><path d="M37 24v-2h14v2H37zm5-10h9v2h-9v-2zm-12 4h7v2h-7v-2zm-7-8h10v2H23v-2zm-3-4h6v2h-6V6zm17 22h-3v-2h3v2z" id="path-3" class="cls-5"/><path d="M39 28v-2h12v2H39zm0-10h12v2H39v-2zm-4-8h16v2H35v-2zm-7-4h23v2H28V6zm12 10H27v-2h13v2zm-5 8h-3v-2h3v2z" id="path-4" class="cls-6"/></g></g><g id="letters"><path d="M57 6h16v22h-5V11h-6v11c0 3-2 6-4 6h-5v-5c4 0 4-2 4-4V6z" id="path-5" class="cls-6"/><path d="M77 28V6h5v9l8-9h5l-8 10 9 12h-6l-8-9v9h-5z" id="path-6" class="cls-6"/><path d="M102 6h16v22h-5V11h-6v11c0 3-2 6-4 6h-5v-5c4 0 4-2 4-4V6z" id="path-7" class="cls-6"/></g></g></svg>
